# xmcd
#
# Track frame offsets:
#	150
#	14002
#	27844
#	44635
#	60693
#	79449
#	92427
#	106050
#	119350
#	132755
#
# Disc length: 2025 seconds
#
# Revision: 1
# Processed by: cddbd v1.5PL3 Copyright (c) Steve Scherf et al.
# Submitted via: EasyCDDAExtractor 7.0.5.1
#
DISCID=8007e70a
DTITLE=Delbert McClinton - Keeper of The Flame
DYEAR=1979
DGENRE=Blues
TTITLE0=Plain Old Makin' Love
TTITLE1=Just a Little Bit
TTITLE2=Shot From The Saddle
TTITLE3=I Don't Want to Hear It Anymore
TTITLE4=Have Mercy
TTITLE5=I'm Talking About You
TTITLE6=Two More Bottles of Wine
TTITLE7=See Saw
TTITLE8=I receive a Letter
TTITLE9=A Mess of Blues
EXTD=
EXTT0=
EXTT1=
EXTT2=
EXTT3=
EXTT4=
EXTT5=
EXTT6=
EXTT7=
EXTT8=
EXTT9=
PLAYORDER=
